<svg width="1200" height="800" viewBox="0 0 1200 800" fill="none" xmlns="http://www.w3.org/2000/svg">
  <rect width="1200" height="800" rx="28" fill="url(#bg)"/>
  <g opacity="0.08">
    <circle cx="150" cy="120" r="80" fill="#0EA5E9"/>
    <circle cx="280" cy="160" r="50" fill="#8B5CF6"/>
    <circle cx="1040" cy="700" r="90" fill="#22D3EE"/>
    <circle cx="980" cy="120" r="70" fill="#A78BFA"/>
  </g>
  <g>
    <rect x="240" y="190" width="720" height="420" rx="20" fill="#FFFFFF"/>
    <rect x="240" y="190" width="720" height="420" rx="20" fill="url(#noise)" opacity="0.06"/>
    <g transform="translate(260 210)">
      <circle cx="10" cy="10" r="6" fill="#EF4444"/>
      <circle cx="30" cy="10" r="6" fill="#F59E0B"/>
      <circle cx="50" cy="10" r="6" fill="#10B981"/>
    </g>
    <!-- Chat bubble 1 -->
    <g filter="url(#shadow)">
      <rect x="300" y="280" width="360" height="120" rx="16" fill="#F1F5F9"/>
      <path d="M360 400 L350 432 L392 400" fill="#F1F5F9"/>
      <rect x="324" y="304" width="220" height="16" rx="8" fill="#111827" opacity="0.6"/>
      <rect x="324" y="334" width="280" height="12" rx="6" fill="#111827" opacity="0.35"/>
    </g>
    <!-- Chat bubble 2 -->
    <g filter="url(#shadow)">
      <rect x="540" y="420" width="360" height="120" rx="16" fill="#EEF2FF"/>
      <path d="M780 540 L792 572 L740 540" fill="#EEF2FF"/>
      <rect x="564" y="444" width="240" height="16" rx="8" fill="#4F46E5" opacity="0.9"/>
      <rect x="564" y="474" width="300" height="12" rx="6" fill="#4F46E5" opacity="0.45"/>
    </g>
  </g>
  <defs>
    <linearGradient id="bg" x1="0" y1="0" x2="1200" y2="800" gradientUnits="userSpaceOnUse">
      <stop stop-color="#F8FAFC"/>
      <stop offset="1" stop-color="#EEF2FF"/>
    </linearGradient>
    <linearGradient id="noise" x1="0" y1="0" x2="1" y2="1">
      <stop stop-color="#000"/>
      <stop offset="1" stop-color="#000"/>
    </linearGradient>
    <filter id="shadow" x="0" y="0" width="200%" height="200%">
      <feOffset dy="8"/>
      <feGaussianBlur stdDeviation="10" result="blur"/>
      <feColorMatrix type="matrix" values="0 0 0 0 0  0 0 0 0 0  0 0 0 0 0  0 0 0 .12 0"/>
      <feBlend in2="SourceGraphic" mode="normal"/>
    </filter>
  </defs>
</svg>
