<svg width="1200" height="800" viewBox="0 0 1200 800" fill="none" xmlns="http://www.w3.org/2000/svg">
  <rect width="1200" height="800" rx="28" fill="url(#bg)"/>
  <g opacity="0.08">
    <circle cx="1040" cy="640" r="90" fill="#0EA5E9"/>
    <circle cx="200" cy="160" r="70" fill="#A78BFA"/>
  </g>
  <g>
    <rect x="240" y="180" width="720" height="440" rx="20" fill="#FFFFFF"/>
    <g transform="translate(260 200)">
      <circle cx="10" cy="10" r="6" fill="#EF4444"/>
      <circle cx="30" cy="10" r="6" fill="#F59E0B"/>
      <circle cx="50" cy="10" r="6" fill="#10B981"/>
    </g>
    <!-- Chart area -->
    <rect x="280" y="260" width="640" height="300" rx="12" fill="#F8FAFC"/>
    <!-- Bars -->
    <rect x="320" y="520" width="40" height="40" rx="6" fill="#CBD5E1"/>
    <rect x="380" y="480" width="40" height="80" rx="6" fill="#A5B4FC"/>
    <rect x="440" y="440" width="40" height="120" rx="6" fill="#818CF8"/>
    <rect x="500" y="400" width="40" height="160" rx="6" fill="#6366F1"/>
    <rect x="560" y="460" width="40" height="100" rx="6" fill="#93C5FD"/>
    <rect x="620" y="500" width="40" height="60" rx="6" fill="#60A5FA"/>
    <rect x="680" y="420" width="40" height="140" rx="6" fill="#3B82F6"/>
    <rect x="740" y="360" width="40" height="200" rx="6" fill="#2563EB"/>
    <!-- Line -->
    <path d="M320 520 C380 460, 460 520, 520 440 C580 360, 660 420, 720 380 C780 340, 820 360, 920 320" stroke="#22D3EE" stroke-width="4" fill="none"/>
  </g>
  <defs>
    <linearGradient id="bg" x1="0" y1="0" x2="1200" y2="800" gradientUnits="userSpaceOnUse">
      <stop stop-color="#F8FAFC"/>
      <stop offset="1" stop-color="#EEF2FF"/>
    </linearGradient>
  </defs>
</svg>
